<svg width="7" height="13" viewBox="0 0 7 13" fill="none" xmlns="http://www.w3.org/2000/svg">
<g clip-path="url(#clip0_379_124)">
<path d="M5.81829 3.9639C5.87186 3.91032 5.90195 3.83766 5.90195 3.7619C5.90195 3.68613 5.87186 3.61347 5.81829 3.5599L4.20201 1.94361C4.17565 1.91632 4.14412 1.89455 4.10927 1.87958C4.07441 1.86461 4.03692 1.85672 3.99898 1.8564C3.96104 1.85607 3.92342 1.86329 3.88831 1.87766C3.85319 1.89203 3.82129 1.91324 3.79447 1.94007C3.76764 1.96689 3.74642 1.9988 3.73206 2.03391C3.71769 2.06902 3.71046 2.10664 3.71079 2.14458C3.71112 2.18252 3.719 2.22001 3.73398 2.25487C3.74895 2.28973 3.77072 2.32125 3.79801 2.34761L4.92658 3.47618L1.14287 3.47618C1.06709 3.47618 0.994416 3.50628 0.940835 3.55986C0.887252 3.61345 0.857151 3.68612 0.857151 3.7619C0.857151 3.83767 0.887252 3.91034 0.940835 3.96393C0.994416 4.01751 1.06709 4.04761 1.14287 4.04761L4.92658 4.04761L3.79801 5.17618C3.74596 5.23007 3.71716 5.30224 3.71782 5.37715C3.71847 5.45207 3.74851 5.52373 3.80149 5.5767C3.85446 5.62967 3.92612 5.65972 4.00104 5.66037C4.07595 5.66102 4.14812 5.63223 4.20201 5.58018L5.81829 3.9639Z" fill="black"/>
</g>
<g clip-path="url(#clip1_379_124)">
<path d="M1.03885 8.70279C0.98529 8.75637 0.9552 8.82903 0.9552 8.90479C0.9552 8.98055 0.98529 9.05321 1.03885 9.10679L2.65514 10.7231C2.6815 10.7504 2.71302 10.7721 2.74788 10.7871C2.78274 10.8021 2.82023 10.81 2.85817 10.8103C2.8961 10.8106 2.93373 10.8034 2.96884 10.789C3.00395 10.7747 3.03585 10.7534 3.06268 10.7266C3.08951 10.6998 3.11072 10.6679 3.12509 10.6328C3.13945 10.5977 3.14668 10.56 3.14635 10.5221C3.14602 10.4842 3.13814 10.4467 3.12317 10.4118C3.10819 10.377 3.08643 10.3454 3.05914 10.3191L1.93057 9.19051H5.71428C5.79006 9.19051 5.86273 9.1604 5.91631 9.10682C5.96989 9.05324 6 8.98057 6 8.90479C6 8.82902 5.96989 8.75634 5.91631 8.70276C5.86273 8.64918 5.79006 8.61908 5.71428 8.61908H1.93057L3.05914 7.49051C3.11118 7.43662 3.13998 7.36445 3.13933 7.28953C3.13868 7.21462 3.10863 7.14296 3.05566 7.08999C3.00269 7.03701 2.93102 7.00696 2.85611 7.00631C2.7812 7.00566 2.70903 7.03446 2.65514 7.08651L1.03885 8.70279Z" fill="black"/>
</g>
<defs>
<clipPath id="clip0_379_124">
<rect width="6.85714" height="6.85714" fill="white" transform="matrix(0 1 -1 0 6.85715 0.333313)"/>
</clipPath>
<clipPath id="clip1_379_124">
<rect width="6.85714" height="6.85714" fill="white" transform="matrix(0 -1 1 0 0 12.3333)"/>
</clipPath>
</defs>
</svg>
