<svg width="430" height="299" viewBox="0 0 430 299" fill="none" xmlns="http://www.w3.org/2000/svg">
<path d="M0 94.6909V189.382L17.2801 199.27C26.6692 204.764 59.9309 224.841 91.0949 243.919C122.259 262.997 150.826 280.377 154.522 282.474C174.898 294.261 203.066 300.354 225.74 297.757C245.717 295.559 264.795 288.667 281.475 277.88C284.572 275.882 287.668 273.984 288.267 273.684C288.767 273.385 299.455 266.892 312.04 259.201C324.526 251.51 336.612 244.118 338.909 242.82C341.107 241.521 345.501 238.825 348.598 236.827C351.594 234.829 354.991 232.732 356.089 232.132C357.188 231.533 366.178 226.139 376.066 220.046C385.955 214.053 400.538 205.363 408.529 200.868C416.52 196.274 424.51 191.579 426.208 190.38L429.505 188.283V94.0916V9.42342e-05H214.752H0V94.6909Z" fill="#A5D9FF"/>
</svg>
