<svg width="430" height="299" viewBox="0 0 430 299" fill="none" xmlns="http://www.w3.org/2000/svg">
<path d="M429.505 203.658V108.967L412.224 99.0789C402.835 93.5852 369.574 73.5084 338.41 54.4304C307.246 35.3524 278.679 17.9724 274.983 15.8749C254.606 4.08846 226.439 -2.00451 203.765 0.592492C183.788 2.78996 164.71 9.68201 148.029 20.4696C144.933 22.4673 141.836 24.3651 141.237 24.6647C140.738 24.9644 130.05 31.4569 117.464 39.148C104.979 46.8391 92.8928 54.2306 90.5955 55.5291C88.398 56.8276 84.0031 59.5245 80.9066 61.5222C77.9101 63.5199 74.514 65.6175 73.4153 66.2168C72.3165 66.8161 63.3269 72.2099 53.4383 78.3029C43.5497 84.2959 28.9666 92.9859 20.9758 97.4807C12.985 102.075 4.99421 106.77 3.29617 107.969L-2.99215e-05 110.066V204.258L-2.99215e-05 298.349L214.752 298.349H429.505L429.505 203.658Z" fill="#A5D9FF"/>
</svg>
